PathFileType	4	(X/Y/Z)	../Python\running\Running01\task.trc
DataRate	CameraRate	NumFrames	NumMarkers	Units	OrigDataRate	OrigDataStartFrame	OrigNumFrames
200.000000	200.000000	6	30	mm	200.000000	105	169
Frame#	Time	C7			RBAK			CLAV			STRN			RASI			LASI			RTH2			RTH3			RTB2			RHEE			RD5M			RTOE			LTH2			LTH3			LTB2			LTB3			LHEE			LTOE			LD5M			RPSI			RTH1			RTB1			RTB3			LPSI			PE03			T10			PE01			PE02			LTH1			LTB1			
		X1	Y1	Z1	X2	Y2	Z2	X3	Y3	Z3	X4	Y4	Z4	X5	Y5	Z5	X6	Y6	Z6	X7	Y7	Z7	X8	Y8	Z8	X9	Y9	Z9	X10	Y10	Z10	X11	Y11	Z11	X12	Y12	Z12	X13	Y13	Z13	X14	Y14	Z14	X15	Y15	Z15	X16	Y16	Z16	X17	Y17	Z17	X18	Y18	Z18	X19	Y19	Z19	X20	Y20	Z20	X21	Y21	Z21	X22	Y22	Z22	X23	Y23	Z23	X24	Y24	Z24	X25	Y25	Z25	X26	Y26	Z26	X27	Y27	Z27	X28	Y28	Z28	X29	Y29	Z29	X30	Y30	Z30	

106	0.525	388.3459777832034	1309.802612304688	166.2449798583985	318.7840576171876	1201.461303710938	252.7715454101564	505.4998168945315	1202.388549804688	173.7311401367188	544.5560302734377	1012.195373535157	153.5812377929688	472.8193664550784	831.6200561523442	266.9220581054689	468.8530273437502	803.7665405273442	41.97896957397462	480.9512939453127	480.2241516113284	272.0206604003907	493.9991149902346	539.1401367187502	287.1170349121095	420.8893127441409	230.4921722412111	240.5792236328126	291.0278320312501	32.93584060668947	138.2232360839844	442.0680847167971	18.61208534240723	203.8194580078126	481.3167114257815	31.86348152160646	148.1220703125001	394.4422912597659	490.1056823730471	12.02762603759766	462.3300781250002	527.1455078125002	-6.041986465454105	212.5513305664064	348.675018310547	46.93800735473634	252.7753906250001	319.400115966797	42.79369735717775	34.78133773803712	315.7613830566407	131.6342010498047	121.6164703369141	166.1758422851563	75.83154296875003	89.6729431152344	195.3199462890626	43.67492294311525	282.5682983398439	895.9650268554692	199.4739837646486	445.0259094238284	547.592712402344	294.6726989746095	474.207214355469	258.6604309082032	229.1606292724611	437.8590393066409	189.9251861572266	215.4344635009767	281.6213378906251	884.3918457031255	111.2564544677735	266.1398315429689	865.6169433593755	130.1550598144532	320.193328857422	1020.802001953125	137.2730407714844	293.9865722656251	924.514038085938	149.8245849609376	265.6172485351564	872.0534057617192	180.4344482421876	415.425720214844	545.5126953125002	-5.471319675445558	287.9593505859376	369.263641357422	27.44683074951173	
107	0.53	405.2224731445315	1308.695190429688	166.8034820556641	337.1553955078126	1199.95361328125	254.8723602294923	522.5628051757815	1200.709594726563	172.4704742431641	561.144226074219	1010.146606445313	152.2100372314454	488.6551818847659	829.8078002929692	267.5621032714845	485.0616149902346	802.1001586914067	42.56789779663087	493.0697326660159	478.6365661621096	272.2434997558595	506.709899902344	537.465515136719	286.8949584960939	425.1146545410159	229.3290863037111	240.3877410888673	291.0247497558595	34.06343460083009	138.5743865966797	441.9104919433596	18.53433799743653	203.8025512695314	481.2148437500002	31.71039772033693	148.1552276611329	420.2060852050784	489.2520446777346	11.24985599517823	487.2799377441409	528.278991699219	-5.780150413513185	242.4973449707032	343.6036987304689	44.11447525024415	283.3848876953126	315.2290039062501	40.71424102783205	64.17057037353518	305.8920288085939	126.6567306518555	157.0026855468751	158.7170104980469	72.19028472900393	124.2634048461915	187.377914428711	39.48699951171876	298.5330810546876	895.717651367188	199.4185333251954	457.856140136719	546.1995849609377	295.2692871093751	479.0446472167971	256.3372802734376	229.3585052490236	441.2532958984377	188.3747711181641	215.4563751220704	297.8282775878907	883.758178710938	111.314193725586	282.227508544922	865.2256469726567	130.1191864013672	336.8482055664064	1019.628356933594	138.2093963623047	310.2462768554689	924.0625000000005	149.8091583251954	281.5123901367189	871.8059082031255	180.3739013671876	439.853942871094	545.251403808594	-5.837708473205568	317.6022338867189	365.9429321289064	25.6697292327881	
108	0.535	422.0879211425784	1307.96337890625	167.2918701171876	355.675262451172	1198.920776367188	256.9739990234376	539.5842895507815	1199.53662109375	171.0852050781251	577.6467285156252	1008.608703613282	150.7864532470704	504.5216979980471	828.253295898438	268.2102050781251	501.3231201171877	800.954223632813	43.11531066894533	504.7964477539065	477.0003356933596	272.4730529785157	519.3095703125002	535.6589355468752	286.6304321289064	428.9007263183596	228.3291320800782	240.2299346923829	290.9743652343751	35.33765411376955	138.9747009277344	441.7430419921877	18.39367103576661	203.7950897216798	481.0824279785159	31.5177345275879	148.1903228759766	445.9820556640627	489.1434020996096	10.63033676147461	512.144714355469	530.145202636719	-5.446795940399172	272.5266418457032	338.6798095703126	41.48677062988283	314.1088256835939	311.3585815429689	38.78720092773439	93.98274993896487	295.5000000000001	121.7875137329102	193.0625000000001	151.0950469970704	68.48999786376956	159.4159088134766	179.4374237060547	35.26395416259767	314.5396728515626	895.6560668945317	199.4399414062501	470.6313171386721	544.9440917968752	295.8574523925782	483.369812011719	254.1582183837892	229.7371826171876	444.2449951171877	186.9596099853516	215.5884094238282	314.0576477050782	883.475219726563	111.5241775512696	298.3411865234376	865.1410522460942	130.197738647461	353.5109252929689	1018.856689453125	139.2245788574219	326.559051513672	923.8783569335942	149.9479370117188	297.4545898437501	871.8254394531255	180.4293823242188	464.2359008789065	545.689880371094	-6.10105657577515	347.1683654785157	363.0229797363282	24.15842247009279	
109	0.54	438.9380798339846	1307.609985351563	167.7126922607422	374.3435668945314	1198.366088867188	259.0749816894532	556.567321777344	1198.876098632813	169.579818725586	594.0758056640627	1007.591125488282	149.3106842041016	520.4381103515627	826.9667968750005	268.8669738769532	517.6546630859377	800.3420410156255	43.6144256591797	515.8480224609377	475.2600708007815	272.6591796875001	531.5772705078127	533.634460449219	286.294158935547	432.2974548339846	227.5173645019532	240.0746307373048	290.8808898925782	36.79130172729494	139.3815917968751	441.5513916015627	18.22124671936036	203.7820892333986	480.9245605468752	31.30572319030763	148.2236328125001	471.7188110351565	489.770202636719	10.19003105163575	536.863952636719	532.7353515625002	-5.039014816284181	302.6101379394532	333.9155273437501	39.06193161010744	344.9102172851564	307.8045959472657	37.01351547241212	124.2456665039063	284.6459960937501	117.052230834961	229.7697296142579	143.4324798583985	64.78298187255862	195.1134796142579	171.552230834961	31.06011962890626	330.6104736328126	895.7673950195317	199.5624389648439	483.1677246093752	543.7957763671877	296.3787841796876	487.2463073730471	252.1634979248048	230.2066040039064	446.8854675292971	185.7118835449219	215.7633514404298	330.3249816894532	883.527709960938	111.8936920166016	314.5013732910157	865.3463745117192	130.4025421142579	370.1956176757814	1018.480041503907	140.3282775878907	342.9302062988282	923.9516601562505	150.2540740966797	313.4641113281251	872.091430664063	180.6132049560547	488.5138244628909	546.8135986328127	-6.249290943145756	376.6040649414064	360.4973449707032	22.90294456481934	
110	0.545	455.7696533203127	1307.634155273438	168.0688018798829	393.1578063964846	1198.288452148438	261.1733398437501	573.515075683594	1198.726440429688	167.9603424072266	610.4464111328127	1007.0947265625	147.7840576171876	536.4229736328127	825.9566040039067	269.532684326172	534.0723266601565	800.267456054688	44.06155395507814	525.981140136719	473.4292602539065	272.7659301757814	543.2916259765627	531.3801879882815	285.8739013671876	435.3709106445315	226.935760498047	239.8941650390626	290.7609863281251	38.47835540771486	139.7618560791016	441.3273010253909	18.04551124572755	203.7474517822267	480.7515258789065	31.09104728698732	148.2499542236329	497.3648071289065	491.111022949219	9.948843955993656	561.3768310546877	536.0281982421877	-4.555277347564699	332.7223205566407	329.317596435547	36.8424530029297	375.7562561035157	304.5747680664064	35.39139556884767	154.9855957031251	273.3971557617189	112.468490600586	267.0854797363282	135.8654479980469	61.12673568725589	231.3389434814454	163.7623748779297	26.93668174743654	346.7667846679689	896.0429687500005	199.811248779297	495.2751464843752	542.7595214843752	296.7846984863282	490.7581787109377	250.4147033691407	230.6764068603517	449.2425842285159	184.6851806640626	215.9219818115236	346.6451721191407	883.9016723632817	112.4285278320313	330.727996826172	865.8281250000005	130.7435455322266	386.9160156250002	1018.48779296875	141.5316925048829	359.3671264648439	924.274291992188	150.7412567138672	329.5601806640626	872.5842895507817	180.9358520507813	512.6312255859377	548.5957641601565	-6.270231246948246	405.8638305664065	358.347625732422	21.88606452941895	
111	0.55	472.5803527832034	1308.030639648438	168.3632202148438	412.112976074219	1198.681640625	263.2660217285157	590.430847167969	1199.07958984375	166.2342071533204	626.7752075195315	1007.112731933594	146.2093811035157	552.4939575195315	825.2290649414067	270.2075195312501	550.5914306640627	800.7255859375005	44.45723342895509	535.0334472656252	471.5870666503909	272.7726135253907	554.2671508789065	528.9592285156252	285.3757324218751	438.1971435546877	226.6391754150392	239.6677703857423	290.6428833007814	40.4658546447754	140.0946960449219	441.0695800781252	17.89114570617676	203.6760406494142	480.5771179199221	30.88686752319337	148.2628326416016	522.8681640625002	493.1328430175784	9.925608634948734	585.6236572265627	539.988464355469	-3.996667146682741	362.8420715332032	324.8872680664064	34.82674789428712	406.6183166503909	301.6680908203126	33.91745758056642	186.2259826660157	261.825653076172	108.047462463379	304.9606323242189	128.5353240966797	57.57759475708011	268.0755920410157	156.0982666015626	22.95772743225098	363.0280151367189	896.4774780273442	200.2104797363282	506.7865905761721	541.8740234375002	297.0393676757814	493.9995727539065	248.9880371093751	231.0650482177736	451.3930358886721	183.9487304687501	216.0176239013673	363.0325317382814	884.5845336914067	113.1326065063477	347.0400390625001	866.5759887695317	131.2279205322266	403.6853027343752	1018.86669921875	142.8469848632813	375.8795471191407	924.8388671875005	151.4227294921876	345.7603454589845	873.286254882813	181.4050292968751	536.5344238281252	550.9981689453127	-6.152084827423099	434.9125976562502	356.5448608398439	21.08473014831544	
